<svg xmlns="http://www.w3.org/2000/svg" version="1.0" width="400.000000" height="400.000000" preserveAspectRatio="xMidYMid meet"><rect id="backgroundrect" width="100%" height="100%" x="0" y="0" fill="none" stroke="none"/>
<metadata>
Created by potrace 1.16, written by Peter Selinger 2001-2019
</metadata>

<g class="currentLayer" style=""><title>Layer 1</title><g transform="translate(0,400) scale(0.10000000149011612,-0.10000000149011612) " fill="#febc11" stroke="none" id="svg_1" class="selected" fill-opacity="1">
<path d="M1703 3993 c-29 -2 -53 -8 -53 -12 0 -5 -37 -11 -82 -15 -46 -4 -84 -11 -86 -16 -2 -6 -19 -10 -38 -10 -19 0 -34 -4 -34 -9 0 -5 -22 -12 -50 -16 -27 -4 -50 -11 -50 -16 0 -5 -11 -9 -25 -9 -14 0 -25 -4 -25 -10 0 -5 -9 -10 -20 -10 -11 0 -20 -4 -20 -10 0 -5 -16 -12 -35 -16 -19 -3 -38 -10 -41 -15 -3 -5 -14 -9 -25 -9 -10 0 -19 -4 -19 -9 0 -5 -13 -12 -30 -16 -16 -4 -36 -14 -42 -24 -7 -10 -24 -21 -38 -24 -14 -3 -35 -15 -47 -27 -12 -11 -27 -20 -33 -20 -5 0 -10 -4 -10 -9 0 -5 -10 -13 -22 -17 -13 -4 -30 -15 -39 -25 -9 -11 -23 -19 -30 -19 -8 0 -28 -16 -44 -35 -17 -19 -35 -35 -42 -35 -7 0 -30 -18 -52 -40 -22 -22 -42 -40 -44 -40 -3 0 -8 21 -12 46 -5 36 -16 55 -46 85 -39 38 -41 39 -115 39 -46 0 -81 -5 -89 -12 -48 -43 -65 -64 -65 -78 0 -5 -4 -10 -9 -10 -5 0 -12 -75 -15 -167 -3 -93 -9 -230 -12 -307 -4 -93 -2 -142 5 -149 6 -6 11 -17 11 -24 0 -18 57 -73 75 -73 8 0 15 -4 15 -10 0 -6 28 -10 65 -10 37 0 65 4 65 10 0 6 20 10 45 10 25 0 45 4 45 9 0 5 36 12 80 16 44 4 83 11 86 16 3 5 23 9 44 9 21 0 42 5 45 10 3 6 24 10 46 10 21 0 39 5 39 10 0 6 15 10 34 10 32 0 41 5 73 44 7 8 18 16 25 18 9 3 13 28 13 89 0 80 -1 85 -31 117 -17 17 -39 32 -48 32 -9 0 -16 5 -16 10 0 6 -22 10 -50 10 -27 0 -50 3 -50 8 0 4 16 16 35 26 19 10 37 27 40 37 3 9 19 22 36 28 16 5 32 17 35 26 3 8 15 15 25 15 11 0 22 7 25 15 4 8 14 15 23 15 9 0 23 9 31 20 8 10 27 22 42 25 15 4 28 11 28 16 0 5 9 9 19 9 11 0 21 3 23 8 4 10 67 42 84 42 8 0 14 4 14 10 0 5 18 13 40 16 22 4 43 11 46 15 3 5 16 9 30 9 13 0 24 5 24 10 0 6 11 10 25 10 14 0 25 4 25 10 0 5 27 12 60 16 33 4 60 11 60 15 0 5 22 9 49 9 30 0 51 5 53 12 6 18 490 18 496 0 2 -6 19 -12 38 -12 19 0 42 -4 52 -10 9 -5 43 -12 75 -15 31 -4 57 -11 57 -16 0 -5 11 -9 25 -9 14 0 25 -4 25 -10 0 -5 11 -10 24 -10 13 0 37 -7 52 -15 16 -8 37 -15 47 -15 9 0 17 -3 17 -8 0 -8 38 -25 80 -37 14 -4 34 -15 45 -25 11 -10 32 -22 48 -25 15 -4 27 -11 27 -16 0 -5 6 -9 13 -9 7 0 19 -9 27 -20 8 -11 22 -20 31 -20 9 0 25 -11 35 -25 10 -14 24 -25 31 -25 7 0 23 -11 37 -25 14 -14 28 -25 31 -25 13 0 185 -167 185 -180 0 -5 9 -11 19 -15 11 -3 23 -16 27 -28 4 -12 19 -33 34 -47 15 -14 30 -35 34 -48 4 -12 12 -22 17 -22 5 0 9 -7 9 -15 0 -8 4 -15 9 -15 5 0 14 -14 20 -30 5 -17 17 -33 26 -36 8 -3 15 -12 15 -19 0 -16 32 -79 43 -83 4 -2 7 -12 7 -23 0 -10 4 -19 10 -19 5 0 13 -18 16 -40 4 -22 10 -40 15 -40 5 0 9 -11 9 -25 0 -14 4 -25 9 -25 6 0 13 -20 17 -45 3 -25 10 -45 15 -45 5 0 9 -16 9 -35 0 -19 5 -35 10 -35 6 0 10 -11 10 -25 0 -14 4 -25 9 -25 5 0 13 -49 16 -110 4 -60 11 -110 16 -110 12 0 12 -287 1 -294 -5 -3 -12 -49 -15 -103 -4 -54 -11 -99 -17 -101 -5 -2 -10 -21 -10 -43 0 -21 -4 -39 -10 -39 -5 0 -10 -11 -10 -24 0 -14 -4 -27 -9 -30 -5 -4 -12 -29 -16 -56 -4 -28 -11 -50 -16 -50 -5 0 -9 -11 -9 -25 0 -14 -4 -25 -10 -25 -5 0 -12 -16 -16 -35 -3 -19 -10 -35 -15 -35 -5 0 -9 -7 -9 -15 0 -8 -4 -15 -10 -15 -5 0 -10 -6 -10 -14 0 -17 -29 -74 -48 -94 -7 -8 -22 -34 -33 -57 -11 -24 -27 -46 -35 -49 -8 -3 -14 -14 -14 -25 0 -11 -8 -22 -18 -25 -11 -4 -25 -19 -33 -34 -7 -15 -26 -39 -41 -55 -16 -15 -28 -32 -28 -37 0 -12 -79 -90 -91 -90 -5 0 -28 -20 -52 -44 -25 -24 -54 -47 -65 -50 -12 -4 -24 -16 -27 -26 -3 -10 -16 -22 -28 -26 -12 -4 -29 -14 -37 -24 -8 -9 -26 -20 -40 -23 -14 -3 -35 -14 -46 -24 -27 -24 -82 -53 -100 -53 -8 0 -14 -4 -14 -10 0 -5 -7 -10 -15 -10 -8 0 -15 -4 -15 -9 0 -6 -20 -13 -45 -17 -25 -3 -45 -10 -45 -15 0 -5 -7 -9 -15 -9 -8 0 -15 -4 -15 -9 0 -5 -22 -12 -50 -16 -27 -4 -52 -11 -56 -16 -3 -5 -18 -9 -35 -9 -16 0 -29 -4 -29 -10 0 -5 -11 -10 -25 -10 -14 0 -25 -4 -25 -9 0 -5 -44 -12 -97 -16 -54 -3 -106 -10 -115 -15 -22 -12 -308 -13 -308 -2 0 5 -44 12 -97 15 -54 4 -99 11 -101 17 -2 5 -24 10 -48 10 -24 0 -44 5 -44 10 0 6 -11 10 -25 10 -14 0 -25 4 -25 9 0 5 -22 12 -50 16 -27 4 -50 11 -50 16 0 5 -9 9 -20 9 -11 0 -20 4 -20 9 0 5 -18 11 -40 15 -22 3 -40 11 -40 16 0 6 -9 10 -20 10 -11 0 -20 3 -20 8 0 4 -18 16 -40 26 -22 11 -40 22 -40 26 0 3 -20 14 -45 24 -25 11 -45 23 -45 28 0 4 -7 8 -15 8 -8 0 -15 4 -15 9 0 5 -10 13 -21 16 -12 4 -37 23 -56 41 -18 19 -40 34 -48 34 -7 0 -17 9 -20 20 -3 11 -10 20 -15 20 -12 0 -110 98 -110 110 0 5 -9 11 -19 15 -11 3 -23 14 -26 24 -3 10 -18 32 -33 47 -15 16 -36 43 -46 59 -11 17 -25 34 -33 38 -7 4 -13 16 -13 25 0 10 -9 24 -20 32 -11 8 -20 20 -20 27 0 7 -4 13 -10 13 -5 0 -10 6 -10 14 0 8 -6 21 -13 28 -19 19 -47 83 -47 107 0 12 -4 21 -10 21 -5 0 -10 7 -10 15 0 8 -4 15 -9 15 -5 0 -12 16 -16 36 -6 36 -10 46 -33 91 -7 13 -12 30 -12 38 0 8 -4 15 -9 15 -5 0 -13 29 -16 65 -4 36 -11 65 -16 65 -5 0 -9 20 -9 44 0 25 -5 46 -12 48 -8 3 -11 83 -12 288 -1 217 -4 284 -13 288 -7 2 -13 10 -13 18 0 8 -9 14 -19 14 -11 0 -23 9 -26 20 -6 17 -15 20 -76 20 -74 0 -95 -8 -143 -55 l-31 -30 0 -328 c0 -228 3 -330 11 -335 6 -4 14 -38 18 -77 4 -38 11 -74 17 -79 5 -6 9 -20 9 -33 0 -13 4 -23 9 -23 4 0 11 -23 14 -52 4 -28 11 -56 17 -62 5 -5 10 -20 10 -33 0 -13 5 -23 10 -23 6 0 10 -7 10 -15 0 -8 4 -15 9 -15 5 0 12 -16 15 -35 4 -19 11 -35 16 -35 6 0 10 -9 10 -20 0 -11 5 -20 10 -20 6 0 10 -5 10 -11 0 -12 31 -81 39 -89 4 -3 14 -22 23 -43 10 -20 22 -37 28 -37 5 0 10 -9 10 -20 0 -11 4 -20 9 -20 5 0 13 -10 17 -22 4 -13 15 -30 25 -39 11 -9 19 -21 19 -27 0 -6 11 -22 25 -36 14 -14 25 -28 25 -31 0 -4 27 -34 60 -67 33 -33 60 -63 60 -67 0 -11 90 -101 101 -101 4 0 30 -23 57 -50 27 -28 56 -50 65 -50 9 0 18 -9 22 -19 3 -11 21 -26 40 -36 19 -9 35 -20 35 -25 0 -6 9 -10 19 -10 10 0 21 -7 25 -15 3 -8 15 -15 26 -15 11 0 20 -4 20 -10 0 -5 7 -10 15 -10 8 0 15 -3 15 -7 0 -11 58 -43 76 -43 8 0 14 -4 14 -10 0 -5 7 -10 15 -10 8 0 15 -4 15 -9 0 -5 16 -12 35 -15 19 -4 35 -11 35 -16 0 -6 11 -10 25 -10 14 0 25 -4 25 -9 0 -6 20 -13 45 -17 25 -3 45 -10 45 -15 0 -5 11 -9 25 -9 14 0 25 -4 25 -10 0 -5 11 -10 24 -10 13 0 26 -5 28 -10 2 -6 33 -13 71 -17 37 -3 67 -10 67 -14 0 -5 13 -9 28 -9 15 0 34 -6 40 -12 19 -19 735 -19 753 0 7 6 32 12 56 12 24 0 43 4 43 9 0 5 27 12 60 16 33 4 63 11 66 16 3 5 14 9 25 9 10 0 27 4 37 9 43 23 92 41 111 41 12 0 21 5 21 10 0 6 9 10 20 10 11 0 20 4 20 9 0 5 14 12 30 16 17 4 30 11 30 16 0 5 9 9 20 9 11 0 20 3 20 8 0 4 21 16 48 26 26 11 54 27 62 36 8 10 25 20 38 24 12 4 22 12 22 17 0 5 7 9 15 9 8 0 15 5 15 10 0 6 8 10 19 10 10 0 27 11 37 25 10 14 22 25 27 25 8 0 23 12 61 46 12 12 31 24 42 28 10 3 28 19 39 36 11 17 28 33 37 36 9 3 20 14 23 24 3 10 15 22 25 25 10 3 22 15 25 26 4 10 11 19 16 19 5 0 9 5 9 10 0 6 21 33 48 60 57 60 72 77 72 86 0 4 8 14 19 23 10 9 21 26 25 39 4 12 12 22 17 22 5 0 9 7 9 15 0 8 4 15 10 15 5 0 12 11 16 25 3 14 10 25 14 25 4 0 21 26 36 58 16 31 32 59 37 60 4 2 7 12 7 23 0 10 4 19 9 19 5 0 12 13 16 30 4 16 11 32 16 35 5 4 9 17 9 31 0 13 4 24 9 24 5 0 12 13 16 30 4 16 11 30 16 30 5 0 9 14 9 30 0 17 5 30 10 30 6 0 10 13 10 29 0 17 4 32 9 36 6 3 13 27 16 53 4 26 10 56 15 67 9 20 12 36 31 175 15 107 8 645 -9 662 -6 6 -12 31 -12 55 0 24 -4 43 -10 43 -5 0 -12 27 -16 60 -4 33 -11 60 -15 60 -5 0 -9 16 -9 35 0 19 -4 35 -10 35 -5 0 -10 7 -10 15 0 8 -4 15 -9 15 -5 0 -12 20 -15 45 -4 24 -11 47 -17 50 -5 4 -9 15 -9 26 0 10 -4 19 -10 19 -5 0 -12 16 -16 35 -3 19 -10 35 -15 35 -5 0 -9 7 -9 15 0 8 -4 15 -10 15 -5 0 -10 6 -10 14 0 7 -7 19 -15 26 -8 7 -15 21 -15 31 0 11 -4 19 -10 19 -5 0 -10 7 -10 15 0 8 -4 15 -10 15 -5 0 -12 11 -16 25 -3 14 -10 25 -15 25 -5 0 -9 9 -9 20 0 11 -5 20 -10 20 -6 0 -18 16 -27 35 -9 19 -25 37 -34 40 -10 3 -21 16 -25 28 -6 20 -315 337 -328 337 -4 0 -18 11 -32 25 -14 14 -29 25 -35 25 -5 0 -21 11 -35 25 -14 14 -30 25 -36 25 -6 0 -18 8 -27 18 -9 10 -35 27 -58 37 -24 10 -43 22 -43 27 0 4 -7 8 -15 8 -8 0 -15 4 -15 10 0 5 -16 12 -35 16 -19 3 -35 10 -35 15 0 5 -7 9 -15 9 -8 0 -15 4 -15 9 0 5 -20 12 -45 15 -25 4 -45 11 -45 17 0 5 -7 9 -15 9 -8 0 -15 5 -15 10 0 6 -11 10 -24 10 -14 0 -28 4 -31 10 -3 5 -28 12 -55 16 -28 4 -50 10 -50 15 0 5 -13 9 -30 9 -16 0 -30 4 -30 9 0 4 -35 11 -77 15 -43 4 -81 12 -84 18 -7 12 -543 21 -656 11z" id="svg_2" fill="#febc11" fill-opacity="1"/>
<path d="M2273 2663 c-24 -2 -43 -8 -43 -12 0 -5 -26 -11 -58 -14 -32 -2 -67 -10 -78 -15 -10 -6 -34 -17 -51 -24 -18 -7 -33 -16 -33 -19 0 -4 -20 -10 -45 -13 -25 -4 -45 -11 -45 -17 0 -5 -7 -9 -15 -9 -8 0 -15 -4 -15 -9 0 -5 -12 -11 -27 -14 -16 -3 -38 -15 -50 -26 -23 -22 -39 -26 -45 -13 -5 11 -100 42 -130 42 -16 0 -28 5 -28 10 0 6 -18 10 -39 10 -22 0 -43 5 -46 10 -4 6 -62 10 -140 10 -78 0 -136 -4 -140 -10 -3 -5 -26 -10 -51 -10 -24 0 -44 -4 -44 -9 0 -4 -28 -11 -62 -15 -35 -3 -64 -11 -66 -16 -2 -6 -15 -10 -28 -10 -13 0 -24 -4 -24 -10 0 -5 -11 -10 -25 -10 -14 0 -25 -4 -25 -9 0 -5 -16 -12 -35 -15 -19 -4 -35 -11 -35 -16 0 -6 -9 -10 -20 -10 -11 0 -20 -4 -20 -10 0 -5 -16 -12 -35 -16 -19 -3 -35 -10 -35 -15 0 -5 -7 -9 -15 -9 -8 0 -15 -4 -15 -10 0 -5 -9 -10 -20 -10 -11 0 -20 -4 -20 -10 0 -5 -6 -10 -14 -10 -40 0 -61 -64 -31 -94 8 -8 15 -17 15 -21 0 -4 6 -13 14 -21 17 -16 56 -19 56 -4 0 6 7 10 15 10 8 0 15 4 15 9 0 5 16 12 35 15 19 4 35 10 35 14 0 8 74 42 90 42 6 0 10 5 10 10 0 6 9 10 20 10 11 0 20 5 20 10 0 6 11 10 25 10 14 0 25 4 25 10 0 5 18 13 40 16 22 4 40 10 40 15 0 5 13 9 29 9 16 0 31 5 33 10 2 6 43 13 91 17 48 3 87 10 87 15 0 19 281 -13 288 -33 2 -5 17 -9 33 -9 16 0 29 -4 29 -10 0 -5 11 -10 24 -10 14 0 31 -7 40 -15 8 -8 19 -15 25 -15 6 0 11 -4 11 -10 0 -5 7 -10 15 -10 8 0 15 -4 15 -10 0 -5 9 -10 20 -10 11 0 23 -7 26 -15 4 -8 13 -15 21 -15 7 0 24 -11 37 -25 13 -14 31 -25 40 -25 9 0 16 -4 16 -10 0 -19 48 -11 55 9 3 11 15 23 25 26 35 11 38 95 4 95 -8 0 -25 10 -37 23 -12 13 -31 27 -42 31 -17 7 -14 11 25 29 25 12 47 25 48 29 2 4 21 11 43 14 22 4 42 11 45 15 3 5 16 9 30 9 13 0 24 5 24 10 0 6 11 10 25 10 14 0 25 4 25 10 0 5 27 12 60 16 33 4 60 11 60 15 0 5 16 9 35 9 19 0 35 5 35 10 0 6 47 10 120 10 73 0 120 -4 120 -10 0 -5 23 -10 50 -10 28 0 50 -4 50 -9 0 -5 23 -12 50 -16 28 -4 50 -11 50 -16 0 -5 11 -9 25 -9 14 0 25 -4 25 -10 0 -5 6 -10 14 -10 17 0 80 -32 84 -42 2 -5 12 -8 23 -8 10 0 19 -4 19 -9 0 -5 11 -12 25 -15 14 -4 25 -11 25 -16 0 -6 7 -10 15 -10 8 0 15 -4 15 -9 0 -5 10 -13 23 -17 12 -4 29 -15 38 -25 9 -11 22 -19 28 -19 7 0 22 -11 35 -25 26 -28 31 -30 49 -15 7 6 21 18 33 28 22 18 44 54 44 72 0 15 -78 90 -93 90 -7 0 -19 9 -27 20 -8 11 -20 20 -27 20 -7 0 -13 4 -13 10 0 5 -11 12 -25 16 -14 3 -25 10 -25 15 0 5 -9 9 -20 9 -11 0 -20 4 -20 9 0 5 -15 13 -32 16 -18 4 -35 10 -38 14 -12 14 -52 31 -75 31 -14 0 -25 4 -25 9 0 5 -26 13 -57 17 -32 4 -61 11 -65 17 -7 11 -479 19 -565 10z" id="svg_3" fill="#febc11" fill-opacity="1"/>
<path d="M2090 2289 c0 -6 6 -16 13 -23 12 -12 80 -46 91 -46 3 0 15 -8 26 -17 26 -22 89 -61 113 -69 9 -4 17 -10 17 -14 0 -5 9 -12 21 -15 55 -18 123 -119 101 -151 -11 -16 -106 -36 -197 -41 -44 -2 -84 -9 -89 -14 -6 -5 -52 -9 -103 -9 -51 0 -93 -4 -93 -9 0 -4 -37 -11 -82 -15 -46 -4 -84 -11 -86 -16 -2 -6 -12 -10 -23 -10 -10 0 -19 -4 -19 -9 0 -5 -12 -12 -27 -15 -31 -8 -76 -54 -95 -96 -7 -17 -16 -30 -20 -30 -5 0 -8 -9 -8 -20 0 -11 -4 -20 -10 -20 -6 0 -10 -36 -10 -89 0 -50 5 -93 10 -96 6 -3 10 -15 10 -26 0 -10 5 -19 10 -19 6 0 10 -13 10 -30 0 -16 -4 -30 -10 -30 -5 0 -10 -5 -10 -11 0 -10 -6 -18 -37 -51 -18 -20 -41 -38 -48 -38 -3 0 -18 -11 -33 -25 -15 -14 -31 -25 -36 -25 -5 0 -16 -8 -25 -19 -9 -10 -26 -21 -38 -25 -13 -4 -23 -12 -23 -17 0 -5 -7 -9 -15 -9 -8 0 -15 -3 -15 -8 0 -4 -16 -16 -35 -26 -21 -11 -35 -27 -35 -38 0 -17 10 -18 130 -18 l130 0 0 -25 c0 -24 2 -25 65 -25 37 0 65 4 65 10 0 14 108 12 126 -2 9 -7 23 -21 32 -30 22 -24 219 -27 228 -3 3 8 14 17 23 20 10 3 27 21 37 40 10 19 22 35 26 35 5 0 8 9 8 20 0 11 4 20 9 20 5 0 12 13 16 30 4 17 11 30 16 30 5 0 9 9 9 20 0 11 5 20 10 20 15 0 13 166 -2 193 -7 12 -16 24 -19 27 -4 3 -9 15 -13 28 -4 12 -12 22 -17 22 -5 0 -9 5 -9 10 0 11 -10 25 -47 65 -13 13 -23 29 -23 35 0 5 -4 10 -10 10 -5 0 -10 11 -10 25 0 20 5 25 24 25 14 0 28 5 31 10 3 6 35 10 71 10 35 0 64 4 64 8 0 5 43 12 95 15 83 6 128 17 145 38 3 3 16 9 30 12 23 6 36 16 77 59 7 7 24 24 38 38 14 13 25 35 25 47 0 13 5 23 10 23 6 0 10 18 10 40 0 22 -4 40 -9 40 -5 0 -11 13 -14 28 -6 28 -59 92 -78 92 -5 0 -20 9 -32 21 -12 11 -34 23 -49 26 -16 3 -28 9 -28 14 0 5 -7 9 -15 9 -8 0 -15 5 -15 10 0 6 -9 10 -19 10 -11 0 -23 5 -26 10 -3 6 -13 10 -22 10 -14 0 -67 20 -106 41 -10 6 -41 13 -68 16 -27 3 -49 10 -49 14 0 5 -16 9 -35 9 -19 0 -35 -5 -35 -11z" id="svg_4" fill="#febc11" fill-opacity="1"/>
</g></g></svg>